<?xml version="1.0" encoding="UTF-8" standalone="yes"?>
<svg width="200" height="200" viewBox="0 0 52.916667 52.916669" version="1.2" baseProfile="tiny-ps" xmlns="http://www.w3.org/2000/svg">
  <title>bimi-svg-tiny-12-ps</title>
  <defs id="defs2"/>
  <g transform="translate(0.17803061,-35.725914)" id="layer1">
    <g id="g733" transform="translate(-108.94591,-12.283436)">
      <path d="m 148.61975,62.513469 q -0.29315,2.177643 -2.01014,5.444106 -1.71697,3.224586 -4.104,6.49105 -2.34514,3.224585 -4.39713,5.318474 h 8.29173 v -5.988518 q 1.29822,-1.842621 2.6383,-4.355285 1.3401,-2.512664 1.75887,-4.145897 h 3.55961 v 14.4897 h 4.02026 v 6.156027 h -4.02026 v 5.904765 h -7.95678 v -5.904765 h -14.02896 v -6.239784 q 2.26139,-3.266464 4.48091,-7.914894 2.2195,-4.648428 3.55958,-9.254979 z" id="path842" font-style="normal" font-variant="normal" font-weight="normal" font-size="106.424px" font-family="'Archivo Black'" fill="#0055d4" fill-opacity="1" stroke="none" stroke-width="1.04695"/>
      <path d="M 112.07517,57.107476 V 85.9194 h 9.25511 v -6.449126 l 5.02528,-4.103932 4.67778,8.24325 v -4.344288 l 0.23833,-0.343658 c 1.23277,-1.780677 2.46448,-3.896635 3.69642,-6.351112 l -2.24718,-3.611632 10.34382,-11.851426 H 131.59031 L 121.33028,69.419684 V 57.107476 Z" id="path840" font-style="normal" font-variant="normal" font-weight="normal" font-size="106.424px" font-family="'Archivo Black'" fill="#002255" fill-opacity="1" stroke="none" stroke-width="1.04695"/>
    </g>
  </g>
</svg>